<svg width="21" height="18" viewBox="0 0 21 18" fill="none" xmlns="http://www.w3.org/2000/svg">
<path fill-rule="evenodd" clip-rule="evenodd" d="M17.4831 16.7901L17.4838 16.7884L17.5012 16.7449L20.5 1.6258V1.57669C20.5 1.19999 20.3608 0.871133 20.0579 0.673874C19.7928 0.501212 19.4881 0.488916 19.2744 0.505136C19.0483 0.522291 18.8352 0.578707 18.6877 0.625667C18.6118 0.649826 18.5483 0.673105 18.5028 0.690712C18.48 0.699548 18.4615 0.707047 18.4481 0.712633L18.4349 0.71819L1.71508 7.27713L1.71048 7.27878C1.70145 7.28206 1.68951 7.28652 1.67508 7.29213C1.64633 7.30333 1.60719 7.31934 1.56121 7.34018C1.47093 7.3811 1.34619 7.44424 1.21969 7.53087C1.00484 7.678 0.595721 8.02632 0.664803 8.57855C0.722024 9.03596 1.03733 9.32646 1.2499 9.47686C1.36384 9.55749 1.47286 9.61563 1.55269 9.65363C1.59313 9.67289 1.62749 9.68764 1.65308 9.69806C1.66591 9.70328 1.67663 9.70746 1.68493 9.7106L1.69556 9.71457L1.70235 9.71709L4.62759 10.7019C4.61772 10.8854 4.63592 11.0726 4.68459 11.2572L6.14988 16.8156C6.32361 17.4747 6.91984 17.9337 7.60141 17.9333C8.21234 17.9328 8.75417 17.5632 8.98435 17.0118L11.272 14.5657L15.201 17.578L15.2569 17.6023C15.6138 17.7581 15.9474 17.8075 16.2523 17.7658C16.5568 17.7242 16.7987 17.5965 16.9805 17.4511C17.1594 17.308 17.2819 17.1465 17.359 17.0249C17.3982 16.9631 17.4274 16.9088 17.4476 16.868C17.4578 16.8475 17.4658 16.8301 17.4718 16.8166L17.4794 16.7991L17.4821 16.7927L17.4831 16.7901ZM6.13499 10.8748C6.10169 10.7485 6.15397 10.6151 6.26426 10.5451L16.1863 4.2442C16.1863 4.2442 16.7699 3.8899 16.749 4.2442C16.749 4.2442 16.8532 4.30676 16.5404 4.59849C16.2438 4.87557 9.46876 11.4166 8.78322 12.0785C8.74365 12.1167 8.72003 12.1605 8.70608 12.2137L7.60028 16.4332L6.13499 10.8748Z" fill="black"/>
</svg>
